# xmcd
#
# Track frame offsets:
#	150
#	9217
#	23825
#	36395
#	51925
#	64065
#	84972
#	100465
#	116082
#	133685
#	147187
#	160647
#
# Disc length: 2298 seconds
#
# Revision: 1
# Processed by: cddbd v1.4PL0 Copyright (c) Steve Scherf et al.
# Submitted via: audiograbber 1.80
#
DISCID=9908f80c
DTITLE=LEWIS NIDERMAN and BAND - POOR CAJUN BOY
DYEAR=1900
DGENRE=
TTITLE0=FIDDLE MEDLEY
TTITLE1=HEY BABY QUE PASO
TTITLE2=WHY SHOULD I
TTITLE3=WHERE M I GONNA LIVE
TTITLE4=WHO WERE YOU THINKIN OF
TTITLE5=IF I WERE A CARPENTER
TTITLE6=DISCO ET FAIS DODO
TTITLE7=BIG MAMOU
TTITLE8=HELP ME MAKE IT THROUGH THE NIGHT
TTITLE9=ARE THERE ANY MORE REAL COWBOYS
TTITLE10=POOR CAJUN BOY
TTITLE11=BUMMING AROUND
EXTD=
EXTT0=
EXTT1=
EXTT2=
EXTT3=
EXTT4=
EXTT5=
EXTT6=
EXTT7=
EXTT8=
EXTT9=
EXTT10=
EXTT11=
PLAYORDER=
